<svg width="510" height="510" viewBox="0 0 510 510" fill="none" xmlns="http://www.w3.org/2000/svg">
<g clip-path="url(#clip0_86_20)">
<path d="M255 0C114.75 0 0 114.75 0 255C0 395.25 114.75 510 255 510C395.25 510 510 395.25 510 255C510 114.75 395.25 0 255 0ZM255 459C142.8 459 51 367.2 51 255C51 142.8 142.8 51 255 51C367.2 51 459 142.8 459 255C459 367.2 367.2 459 255 459Z" fill="#C9AE57" fill-opacity="0.9"/>
<path d="M267.75 127.5H229.5V280.5L362.1 362.1L382.5 328.95L267.75 260.1V127.5Z" fill="#C9AE57" fill-opacity="0.9"/>
</g>
<defs>
<clipPath id="clip0_86_20">
<rect width="510" height="510" fill="white"/>
</clipPath>
</defs>
</svg>
