<svg width="42" height="64" viewBox="0 0 42 64" fill="none" xmlns="http://www.w3.org/2000/svg">
<path d="M41.708 20.849C41.708 8.185 33.584 0 21 0C8.41599 0 0.291992 8.185 0.291992 20.849C0.291992 31.405 16.603 52.596 18.467 54.967L20.745 57.895C11.203 57.92 3.50799 59.275 3.50799 60.946C3.50799 62.632 11.344 63.999 21.01 63.999C30.676 63.999 38.512 62.632 38.512 60.946C38.512 59.274 30.808 57.918 21.257 57.895L23.549 54.967C25.396 52.581 41.708 31.39 41.708 20.849ZM14.294 20.835C14.294 17.231 17.296 14.309 21 14.309C24.704 14.309 27.706 17.231 27.706 20.835C27.706 24.439 24.704 27.361 21 27.361C17.296 27.361 14.294 24.439 14.294 20.835Z" fill="#C9AE57"/>
</svg>
