<svg width="486" height="365" viewBox="0 0 486 365" fill="none" xmlns="http://www.w3.org/2000/svg">
<path d="M485.211 303.906C485.211 314.543 482.219 324.404 477.426 333.08L324.225 161.67L475.765 29.0859C481.66 38.4409 485.211 49.4299 485.211 61.3049V303.906ZM242.606 192.793L453.469 8.29288C444.816 3.55588 435.072 0.650879 424.561 0.650879H60.651C50.127 0.650879 40.38 3.55588 31.762 8.29288L242.606 192.793ZM301.393 181.631L252.584 224.365C249.729 226.852 246.174 228.094 242.606 228.094C239.036 228.094 235.481 226.852 232.626 224.365L183.806 181.629L28.667 355.23C37.966 361.064 48.864 364.559 60.65 364.559H424.561C436.345 364.559 447.248 361.064 456.544 355.23L301.393 181.631ZM9.448 29.0849C3.554 38.4399 0 49.4289 0 61.3049V303.907C0 314.544 2.978 324.405 7.789 333.081L160.972 161.641L9.448 29.0849Z" fill="#C9AE57"/>
</svg>
