<svg width="39" height="38" viewBox="0 0 39 38" fill="none" xmlns="http://www.w3.org/2000/svg">
<path d="M36.725 38C32.2111 38 27.7514 37.0412 23.3458 35.1236C18.9403 33.206 14.9319 30.488 11.3208 26.9694C7.70972 23.4509 4.92014 19.5454 2.95208 15.2528C0.984028 10.9602 0 6.61482 0 2.21667C0 1.58333 0.216667 1.05556 0.65 0.633333C1.08333 0.211111 1.625 0 2.275 0H11.05C11.5556 0 12.0069 0.16713 12.4042 0.501389C12.8014 0.835648 13.0361 1.23148 13.1083 1.68889L14.5167 9.07778C14.5889 9.64074 14.5708 10.1157 14.4625 10.5028C14.3542 10.8898 14.1556 11.2241 13.8667 11.5056L8.6125 16.6778C9.33472 17.9796 10.1924 19.2375 11.1854 20.4514C12.1785 21.6653 13.2708 22.8352 14.4625 23.9611C15.5819 25.0519 16.7556 26.0634 17.9833 26.9958C19.2111 27.9282 20.5111 28.7815 21.8833 29.5556L26.975 24.5944C27.3 24.2778 27.7243 24.0403 28.2479 23.8819C28.7715 23.7236 29.2861 23.6796 29.7917 23.75L37.2667 25.2278C37.7722 25.3685 38.1875 25.6236 38.5125 25.9931C38.8375 26.3625 39 26.7759 39 27.2333V35.7833C39 36.4167 38.7833 36.9444 38.35 37.3667C37.9167 37.7889 37.375 38 36.725 38ZM6.55417 12.6667L10.1292 9.18333L9.20833 4.22222H4.3875C4.56806 5.66481 4.82083 7.08981 5.14583 8.49722C5.47083 9.90463 5.94028 11.2944 6.55417 12.6667ZM25.9458 31.5611C27.3542 32.1593 28.7896 32.6343 30.2521 32.9861C31.7146 33.338 33.1861 33.5667 34.6667 33.6722V29.0278L29.575 28.025L25.9458 31.5611Z" fill="#BFA75C"/>
</svg>
