<svg width="60" height="50" viewBox="0 0 60 50" fill="none" xmlns="http://www.w3.org/2000/svg">
<path fill-rule="evenodd" clip-rule="evenodd" d="M48.6012 9.48252C46.1743 7.45915 43.2911 5.85578 40.1177 4.7647C36.9442 3.67363 33.5431 3.1164 30.1102 3.1251C15.7031 3.1251 3.975 12.8497 3.96914 24.8048C3.96277 28.6115 5.16691 32.3517 7.45898 35.6446L3.75 46.8751L17.6074 43.8605C21.4432 45.5921 25.7371 46.4984 30.0996 46.4972H30.1102C44.516 46.4972 56.243 36.7716 56.25 24.8175C56.2587 21.9665 55.587 19.1425 54.2738 16.5098C52.9607 13.8771 51.0324 11.4884 48.6012 9.48252ZM30.1102 42.838H30.1008C26.2118 42.8389 22.3935 41.9716 19.043 40.3263L18.2496 39.9356L10.0266 41.7247L12.2215 35.0753L11.7047 34.3917C9.53014 31.5227 8.37802 28.1981 8.38242 24.8048C8.38242 14.8702 18.1336 6.78721 30.1184 6.78721C35.8676 6.77865 41.3854 8.67347 45.4583 12.0549C49.5312 15.4363 51.8255 20.0275 51.8367 24.8185C51.832 34.754 42.0855 42.838 30.1102 42.838ZM42.027 29.3429C41.3742 29.0714 38.1598 27.7608 37.5644 27.5802C36.9691 27.3995 36.5297 27.3087 36.0949 27.8517C35.6602 28.3946 34.4074 29.6095 34.0266 29.9757C33.6457 30.3419 33.2648 30.3819 32.6121 30.1105C31.9594 29.839 29.8535 29.2677 27.3586 27.422C25.4168 25.9855 24.1066 24.212 23.7258 23.67C23.3449 23.128 23.6848 22.8341 24.0117 22.5646C24.3059 22.3214 24.6645 21.9317 24.9914 21.6153C25.3184 21.2989 25.4273 21.0724 25.6441 20.711C25.8609 20.3497 25.7531 20.0333 25.5902 19.7628C25.4273 19.4923 24.1207 16.8253 23.577 15.7403C23.0461 14.6837 22.5082 14.8272 22.1074 14.8106C21.7266 14.795 21.2871 14.7911 20.8547 14.7911C20.5241 14.7983 20.1989 14.8622 19.8992 14.9788C19.5996 15.0954 19.3321 15.2622 19.1133 15.4689C18.5145 16.0118 16.827 17.3243 16.827 19.9884C16.827 22.6524 19.1707 25.2306 19.4941 25.5919C19.8176 25.9532 24.0996 31.4249 30.6516 33.7716C31.8682 34.2058 33.1113 34.5865 34.3758 34.9122C35.9402 35.3243 37.3641 35.2667 38.4891 35.1271C39.7441 34.9718 42.3562 33.8165 42.8988 32.5509C43.4414 31.2853 43.4426 30.2013 43.2797 29.9757C43.1168 29.7501 42.6809 29.6134 42.027 29.3429Z" fill="#BFA75C"/>
</svg>
